<?xml version="1.0" encoding="iso-8859-1"?>
<svg version="1.1" id="Capa_1" xmlns="http://www.w3.org/2000/svg" xmlns:xlink="http://www.w3.org/1999/xlink" x="0px" y="0px" viewBox="0 0 32.235 32.235" style="enable-background:new 0 0 32.235 32.235;" xml:space="preserve">
	<g>
		<path style="fill:#c0c0c0;" d="M30.044,24.737l-7.799-8.566c-0.027-0.031-0.028-0.121,0-0.149l7.799-8.571
		c1.66-1.827,1.526-4.666-0.299-6.329c-0.796-0.723-1.86-1.121-2.997-1.121c-1.295,0-2.51,0.517-3.333,1.419l-7.297,8.019
		L8.822,1.42C8,0.518,6.787,0,5.493,0C4.355,0,3.29,0.398,2.492,1.122C0.665,2.785,0.531,5.624,2.194,7.453l7.797,8.566
		c0.027,0.031,0.028,0.122,0,0.151l-7.799,8.569c-1.661,1.828-1.527,4.667,0.3,6.33c0.795,0.724,1.859,1.121,2.997,1.121
		c1.295,0,2.51-0.519,3.333-1.419l7.296-8.02l7.297,8.018c0.847,0.932,2.055,1.466,3.313,1.466c1.116,0,2.188-0.414,3.018-1.167
		C31.57,29.405,31.704,26.566,30.044,24.737z M28.227,29.396c-0.834,0.754-2.388,0.683-3.139-0.147l-7.373-8.101
		c-0.419-0.464-0.985-0.718-1.596-0.718c-0.61,0-1.176,0.254-1.596,0.715L7.15,29.249c-0.4,0.44-1.001,0.693-1.652,0.693
		c-0.569,0.001-1.097-0.193-1.485-0.546c-0.905-0.824-0.972-2.231-0.147-3.138l7.798-8.57c0.812-0.895,0.814-2.295,0-3.19
		L3.866,5.931C3.042,5.025,3.108,3.617,4.012,2.793C4.845,2.036,6.4,2.112,7.151,2.939l7.373,8.101
		c0.805,0.89,2.385,0.89,3.191,0.002l7.371-8.102c0.755-0.829,2.311-0.904,3.139-0.148c0.438,0.398,0.695,0.944,0.723,1.537
		c0.027,0.594-0.176,1.162-0.574,1.6L20.575,14.5c-0.812,0.894-0.812,2.295,0,3.19l7.799,8.566
		C29.197,27.164,29.132,28.571,28.227,29.396z" />
	</g>
</svg>