<?xml version="1.0" encoding="iso-8859-1"?>
<svg class="icon icon-file-upload" version="1.1" id="Layer_1" xmlns="http://www.w3.org/2000/svg" xmlns:xlink="http://www.w3.org/1999/xlink" x="0px" y="0px" viewBox="0 0 512 512" style="enable-background:new 0 0 512 512;" xml:space="preserve">
	<path d="M385.766,352.367l-34.133-34.133c-3.336-3.336-8.73-3.336-12.066,0l-34.133,34.133c-3.337,3.337-3.337,8.73,0,12.066
			s8.73,3.336,12.066,0l19.567-19.567v98.867c0,4.71,3.823,8.533,8.533,8.533c4.71,0,8.533-3.823,8.533-8.533v-98.867l19.567,19.567
			c1.664,1.664,3.849,2.5,6.033,2.5c2.185,0,4.369-0.836,6.033-2.5C389.103,361.097,389.103,355.703,385.766,352.367z" />
	<path d="M345.6,256c-70.579,0-128,57.421-128,128s57.421,128,128,128s128-57.421,128-128S416.179,256,345.6,256z M345.6,494.933
			c-61.167,0-110.933-49.766-110.933-110.933S284.433,273.067,345.6,273.067S456.533,322.833,456.533,384
			S406.767,494.933,345.6,494.933z" />
	<path d="M226.133,469.333H55.467V409.6c0-4.71-3.823-8.533-8.533-8.533c-4.71,0-8.533,3.823-8.533,8.533v68.267
			c0,4.71,3.823,8.533,8.533,8.533h179.2c4.71,0,8.533-3.823,8.533-8.533S230.844,469.333,226.133,469.333z" />
	<path d="M46.933,366.933c-4.71,0-8.533,3.823-8.533,8.533S42.223,384,46.933,384h0.085c4.71,0,8.491-3.823,8.491-8.533
			S51.644,366.933,46.933,366.933z" />
	<path d="M394.3,139.034L257.766,2.5c-1.596-1.604-3.772-2.5-6.033-2.5h-204.8C42.223,0,38.4,3.823,38.4,8.533v332.8
			c0,4.71,3.823,8.533,8.533,8.533c4.71,0,8.533-3.823,8.533-8.533V17.067H243.2v128c0,4.71,3.823,8.533,8.533,8.533h128v76.8
			c0,4.71,3.823,8.533,8.533,8.533s8.533-3.823,8.533-8.533v-85.333C396.8,142.805,395.904,140.629,394.3,139.034z M260.267,136.533
			V29.133l107.401,107.401H260.267z" />
</svg>