<?xml version="1.0" encoding="iso-8859-1"?>
<!DOCTYPE svg PUBLIC "-//W3C//DTD SVG 1.1//EN" "http://www.w3.org/Graphics/SVG/1.1/DTD/svg11.dtd">
<svg version="1.1" id="Capa_1" xmlns="http://www.w3.org/2000/svg" xmlns:xlink="http://www.w3.org/1999/xlink" x="0px" y="0px" viewBox="0 0 472.478 472.478" style="enable-background:new 0 0 472.478 472.478;" xml:space="preserve">
	<path d="M279.167,220.837c18.129-4.139,34.504-14.427,46.115-28.979c11.592-14.556,17.977-32.812,17.977-51.405V90.006h17.995
	c8.284,0,15-6.716,15-15V15c0-8.284-6.716-15-15-15H111.226c-8.284,0-15,6.716-15,15v60.006c0,8.284,6.716,15,15,15h17.995v50.448
	c0,18.605,6.386,36.862,17.981,51.407c11.598,14.548,27.974,24.839,46.112,28.978c2.684,0.613,5.098,2.126,6.809,4.278
	c1.739,2.18,2.658,4.807,2.658,7.598v7.05c0,5.722-3.892,10.605-9.466,11.876c-18.143,4.139-34.52,14.429-46.113,28.975
	c-11.595,14.546-17.98,32.804-17.98,51.41v50.448h-17.995c-8.284,0-15,6.716-15,15v60.006c0,8.284,6.716,15,15,15h250.027
	c8.284,0,15-6.716,15-15v-60.006c0-8.284-6.716-15-15-15h-17.995v-50.448c0-18.604-6.387-36.861-17.985-51.408
	c-11.599-14.547-27.973-24.838-46.114-28.978c-3.431-0.781-5.604-2.764-6.813-4.276c-1.739-2.181-2.658-4.808-2.658-7.599v-7.05
	C269.688,226.994,273.583,222.11,279.167,220.837z M126.226,30h220.027v30.006H126.226V30z M313.258,90.006v38.32
	c-50.098,14.57-103.938,14.571-154.038,0.002V90.006H313.258z M346.252,442.478H126.226v-30.006h220.027V442.478z M159.22,382.472
	v-13.906l77.022-29.739l77.016,29.74v13.904H159.22z M272.49,280.888c24.004,5.479,40.768,26.506,40.768,51.136v15.104
	l-73.414-28.349c-2.317-0.896-4.886-0.896-7.204,0l-73.42,28.348v-15.104c0-11.839,4.063-23.456,11.439-32.71
	c7.373-9.249,17.788-15.793,29.325-18.425c18.293-4.171,31.352-19.57,32.677-38.024c1.189,0.068,2.379,0.114,3.57,0.114
	c1.194,0,2.387-0.046,3.58-0.115c0.628,8.43,3.793,16.572,9.089,23.214C254.845,273.518,263.226,278.778,272.49,280.888z
	 M240.877,222.711c-3.098,0.34-6.22,0.339-9.315-0.001c-1.447-5.913-4.154-11.497-7.972-16.283
	c-5.922-7.446-14.304-12.715-23.603-14.837c-21.073-4.808-36.563-21.604-40.031-42.301c24.904,6.637,50.591,9.968,76.28,9.968
	c25.684,0,51.366-3.329,76.264-9.964c-1.493,8.678-5.157,16.935-10.677,23.865c-7.383,9.253-17.8,15.799-29.329,18.431
	C256.532,195.228,244.557,207.412,240.877,222.711z" />
</svg>