<?xml version="1.0" encoding="iso-8859-1"?>
<svg class="icon icon-image-preview" version="1.1" id="Layer_1" xmlns="http://www.w3.org/2000/svg" xmlns:xlink="http://www.w3.org/1999/xlink" x="0px" y="0px" viewBox="0 0 512 512" style="enable-background:new 0 0 512 512;" xml:space="preserve">
	<path d="M477.166,48.657H105.607c-19.207,0-34.834,15.626-34.834,34.834v35.94H68.96c-4.58,0-8.294,3.713-8.294,8.294
			c0,4.58,3.713,8.294,8.294,8.294h1.814v221.719c0,19.207,15.627,34.834,34.834,34.834h319.032v9.4c0,4.58,3.713,8.294,8.294,8.294
			c4.58,0,8.294-3.713,8.294-8.294v-9.4h35.94c19.207,0,34.834-15.627,34.834-34.834V83.49
			C512,64.283,496.373,48.657,477.166,48.657z M105.607,375.983c-10.061,0-18.246-8.185-18.246-18.246v-31.952l102.658-102.658
			c7.115-7.115,18.69-7.115,25.805,0l152.855,152.856H105.607z M495.413,357.737c0,10.061-8.185,18.246-18.246,18.246h-85.032
			l-89.019-89.019l108.069-108.068c7.115-7.115,18.69-7.115,25.805,0l58.424,58.423V357.737z M495.413,213.861l-46.695-46.695
			c-13.582-13.582-35.681-13.582-49.263,0L291.387,275.235L227.551,211.4c-13.582-13.582-35.681-13.582-49.263,0l-90.928,90.928
			V83.49c0-10.061,8.185-18.246,18.246-18.246h371.559c10.061,0,18.246,8.185,18.246,18.246V213.861z" />
	<path d="M8.294,370.924c-4.58,0-8.294,3.713-8.294,8.294v17.693c0,4.58,3.713,8.294,8.294,8.294c4.58,0,8.294-3.713,8.294-8.294
			v-17.693C16.587,374.637,12.874,370.924,8.294,370.924z" />
	<path d="M33.186,119.469c-7.767,0.364-15.284,3.371-21.163,8.468c-3.46,3.001-3.834,8.238-0.833,11.7
			c1.64,1.892,3.948,2.861,6.27,2.861c1.925,0,3.86-0.667,5.43-2.027c3.122-2.707,6.951-4.24,11.073-4.432
			c4.575-0.213,8.111-4.097,7.897-8.672C41.645,122.79,37.753,119.237,33.186,119.469z" />
	<path d="M8.294,317.844c-4.58,0-8.294,3.713-8.294,8.294v17.693c0,4.58,3.713,8.294,8.294,8.294c4.58,0,8.294-3.713,8.294-8.294
			v-17.693C16.587,321.557,12.874,317.844,8.294,317.844z" />
	<path d="M8.294,264.764c-4.58,0-8.294,3.713-8.294,8.294v17.693c0,4.58,3.713,8.294,8.294,8.294c4.58,0,8.294-3.713,8.294-8.294
			v-17.693C16.587,268.477,12.874,264.764,8.294,264.764z" />
	<path d="M8.294,158.604c-4.58,0-8.294,3.713-8.294,8.294v17.693c0,4.58,3.713,8.294,8.294,8.294c4.58,0,8.294-3.713,8.294-8.294
			v-17.693C16.587,162.317,12.874,158.604,8.294,158.604z" />
	<path d="M8.294,211.684c-4.58,0-8.294,3.713-8.294,8.294v17.693c0,4.58,3.713,8.294,8.294,8.294c4.58,0,8.294-3.713,8.294-8.294
			v-17.693C16.587,215.397,12.874,211.684,8.294,211.684z" />
	<path d="M67.69,446.756H49.997c-4.58,0-8.294,3.713-8.294,8.294c0,4.58,3.713,8.294,8.294,8.294H67.69
			c4.58,0,8.294-3.713,8.294-8.294C75.984,450.469,72.271,446.756,67.69,446.756z" />
	<path d="M22.242,441.713c-2.957-2.819-4.899-6.584-5.471-10.599c-0.646-4.535-4.844-7.683-9.381-7.042
			c-4.535,0.646-7.688,4.846-7.042,9.381c1.095,7.687,4.804,14.882,10.443,20.263c1.606,1.532,3.666,2.292,5.724,2.292
			c2.188,0,4.372-0.86,6.002-2.569C25.68,450.125,25.556,444.875,22.242,441.713z" />
	<path d="M386.17,446.756h-17.693c-4.58,0-8.294,3.713-8.294,8.294c0,4.58,3.713,8.294,8.294,8.294h17.693
			c4.58,0,8.294-3.713,8.294-8.294C394.463,450.469,390.75,446.756,386.17,446.756z" />
	<path d="M120.77,446.756h-17.693c-4.58,0-8.294,3.713-8.294,8.294c0,4.58,3.713,8.294,8.294,8.294h17.693
			c4.58,0,8.294-3.713,8.294-8.294C129.064,450.469,125.35,446.756,120.77,446.756z" />
	<path d="M333.09,446.756h-17.693c-4.58,0-8.294,3.713-8.294,8.294c0,4.58,3.713,8.294,8.294,8.294h17.693
			c4.58,0,8.294-3.713,8.294-8.294C341.383,450.469,337.67,446.756,333.09,446.756z" />
	<path d="M434.194,429.357c-4.329-1.499-9.052,0.796-10.551,5.124c-1.329,3.841-3.954,7.174-7.391,9.386
			c-3.852,2.479-4.963,7.611-2.484,11.463c1.586,2.463,4.255,3.805,6.981,3.805c1.538,0,3.093-0.427,4.482-1.321
			c6.545-4.214,11.548-10.574,14.087-17.907C440.815,435.578,438.522,430.855,434.194,429.357z" />
	<path d="M280.01,446.756h-17.693c-4.58,0-8.294,3.713-8.294,8.294c0,4.58,3.713,8.294,8.294,8.294h17.693
			c4.58,0,8.294-3.713,8.294-8.294C288.304,450.469,284.59,446.756,280.01,446.756z" />
	<path d="M173.85,446.756h-17.693c-4.58,0-8.294,3.713-8.294,8.294c0,4.58,3.713,8.294,8.294,8.294h17.693
			c4.58,0,8.294-3.713,8.294-8.294C182.144,450.469,178.43,446.756,173.85,446.756z" />
	<path d="M226.93,446.756h-17.693c-4.58,0-8.294,3.713-8.294,8.294c0,4.58,3.713,8.294,8.294,8.294h17.693
			c4.58,0,8.294-3.713,8.294-8.294C235.224,450.469,231.51,446.756,226.93,446.756z" />
	<path d="M344.466,145.97h-19.251c-3.079-12.556-12.979-22.455-25.535-25.535v-19.251c0-4.58-3.713-8.294-8.294-8.294
			c-4.58,0-8.294,3.713-8.294,8.294v19.251c-12.556,3.079-22.455,12.979-25.535,25.535h-19.251c-4.58,0-8.294,3.713-8.294,8.294
			c0,4.58,3.713,8.294,8.294,8.294h19.251c3.079,12.556,12.979,22.455,25.535,25.535v19.251c0,4.58,3.713,8.294,8.294,8.294
			c4.58,0,8.294-3.713,8.294-8.294v-19.251c12.556-3.079,22.455-12.979,25.535-25.535h19.251c4.58,0,8.294-3.713,8.294-8.294
			C352.76,149.683,349.047,145.97,344.466,145.97z M291.387,172.51c-10.061,0-18.246-8.185-18.246-18.246
			s8.185-18.246,18.246-18.246s18.246,8.185,18.246,18.246S301.447,172.51,291.387,172.51z" />
</svg>