<svg class="abstract-line abstract-line-one" width="138" height="246" viewBox="0 0 138 246" fill="none" xmlns="http://www.w3.org/2000/svg">
    <path d="M123.283 -3C106.092 31.9621 83.4183 50.808 64.8698 61.677C49.4059 70.7374 43.0802 70.5767 31.5429 80.1975C6.50739 101.076 -10.757 141.07 10.7576 160.454C21.3558 170.002 34.7865 166.47 60.2116 171.037C83.0832 175.146 114.54 185.769 148.727 215.428" stroke="var(--color-gray-900)" stroke-width="0.25" stroke-miterlimit="10" />
    <path d="M117.736 -2.93006C102.962 31.0764 81.6316 49.7338 64.2728 60.5971C49.6626 69.7376 43.8202 70.4808 32.4812 80.6999C8.69435 102.137 -7.86613 139.697 12.2084 159.108C22.5477 169.106 35.7486 166.832 61.0991 172.183C83.4175 176.895 114.336 187.735 148.216 216.882" stroke="var(--color-gray-900)" stroke-width="0.25" stroke-miterlimit="10" />
    <path d="M112.191 -2.86011C99.8319 30.1901 79.8396 48.6735 63.6756 59.5191C49.9053 68.7586 44.5593 70.3686 33.4193 81.2042C10.8536 103.153 -5.01379 138.384 13.6583 157.765C23.7463 168.235 36.6975 167.179 61.9858 173.332C83.7455 178.627 114.13 189.703 147.702 218.341" stroke="var(--color-gray-900)" stroke-width="0.25" stroke-miterlimit="10" />
    <path d="M106.645 -2.79016C96.7018 29.3037 78.0428 47.6314 63.0745 58.4412C50.1341 67.7916 45.2937 70.2381 34.3589 81.711C12.9827 104.129 -2.20385 137.128 15.1097 156.424C24.9456 167.387 37.6363 167.511 62.8739 174.482C84.0696 180.336 113.925 191.673 147.191 219.797" stroke="var(--color-gray-900)" stroke-width="0.25" stroke-miterlimit="10" />
    <path d="M101.098 -2.71997C93.5726 28.4208 76.2444 46.611 62.4803 57.3634C50.349 66.8412 46.0197 70.0971 35.2962 82.2117C15.0787 105.059 0.558428 135.917 16.5595 155.077C26.1457 166.556 38.5674 167.819 63.7605 175.627C84.3906 182.022 113.719 193.638 146.674 221.25" stroke="var(--color-gray-900)" stroke-width="0.25" stroke-miterlimit="10" />
    <path d="M95.5522 -2.65003C90.4429 27.5319 74.4464 45.6138 61.8833 56.2855C50.552 65.9107 46.736 69.9332 36.2353 82.716C17.1413 105.958 3.27495 134.756 18.0096 153.733C27.3399 165.748 39.495 168.105 64.6481 176.775C84.7134 183.688 113.513 195.605 146.166 222.706" stroke="var(--color-gray-900)" stroke-width="0.25" stroke-miterlimit="10" />
    <path d="M90.0062 -2.5802C87.3167 26.6455 72.6558 44.6441 61.2861 55.2074C50.744 65.0016 47.4397 69.7584 37.1734 83.2196C19.1698 106.827 5.94204 133.636 19.4603 152.389C28.5232 164.96 40.4224 168.379 65.5347 177.923C85.0391 185.335 113.307 197.575 145.654 224.161" stroke="var(--color-gray-900)" stroke-width="0.25" stroke-miterlimit="10" />
    <path d="M84.4602 -2.50769C84.1844 25.7617 70.8743 43.7074 60.6895 54.1319C50.9304 64.1203 48.1287 69.5763 38.1122 83.7258C21.1644 107.674 8.56138 132.557 20.9116 151.047C29.6925 164.194 41.3519 168.63 66.4228 179.073C85.3693 186.962 113.099 199.54 145.143 225.617" stroke="var(--color-gray-900)" stroke-width="0.25" stroke-miterlimit="10" />
    <path d="M78.9145 -2.44031C81.0546 24.8728 69.1093 42.7983 60.0918 53.0514C51.1134 63.2636 48.7958 69.3732 39.0513 84.2275C23.1248 108.497 11.1311 131.506 22.3617 149.701C30.8421 163.443 42.2887 168.856 67.3104 180.219C85.7059 188.572 112.896 201.507 144.631 227.077" stroke="var(--color-gray-900)" stroke-width="0.25" stroke-miterlimit="10" />
    <path d="M73.3708 -2.37036C77.9268 23.9871 67.3693 41.9252 59.4967 51.9734C51.3021 62.4333 49.4548 69.1651 39.9916 84.7311C25.0548 109.302 13.6559 130.482 23.8145 148.357C31.9699 162.707 43.2367 169.064 68.2 181.366C86.053 190.165 112.692 203.475 144.121 228.529" stroke="var(--color-gray-900)" stroke-width="0.25" stroke-miterlimit="10" />
    <path d="M67.8219 -2.3003C74.7946 23.104 65.6541 41.0862 58.8973 50.8962C51.4988 61.6366 50.0857 68.9497 40.9283 85.2355C26.949 110.096 16.1294 129.481 25.2622 147.013C33.0641 161.989 44.1934 169.251 69.0852 182.514C86.4049 191.743 112.484 205.443 143.605 229.985" stroke="var(--color-gray-900)" stroke-width="0.25" stroke-miterlimit="10" />
    <path d="M62.2769 -2.23023C71.6664 22.2146 63.979 40.2794 58.301 49.8183C51.7217 60.8702 50.6981 68.7297 41.8673 85.7393C28.8163 110.881 18.5623 128.499 26.7138 145.669C34.1269 161.284 45.1685 169.42 69.9727 183.663C86.7707 193.307 112.28 207.41 143.095 231.441" stroke="var(--color-gray-900)" stroke-width="0.25" stroke-miterlimit="10" />
    <path d="M56.7294 -2.16028C68.5356 21.3283 62.3451 39.5003 57.7022 48.7404C51.9782 60.1326 51.2881 68.499 42.8046 86.2436C30.6534 111.66 20.9504 127.53 28.1637 144.326C35.1487 160.589 46.1596 169.57 70.8593 184.81C87.1463 194.86 112.073 209.378 142.583 232.897" stroke="var(--color-gray-900)" stroke-width="0.25" stroke-miterlimit="10" />
    <path d="M51.1845 -2.09034C65.4067 20.4426 60.7607 38.7444 57.1061 47.6624C52.2872 59.4209 51.8577 68.267 43.7446 86.746C32.467 112.433 23.3043 126.568 29.6146 142.98C36.1271 159.908 47.1741 169.701 71.7478 185.957C87.5368 196.403 111.87 211.345 142.069 234.353" stroke="var(--color-gray-900)" stroke-width="0.25" stroke-miterlimit="10" />
    <path d="M45.6381 -2.02051C62.277 19.5561 59.2263 38.0036 56.5083 46.5818C52.6616 58.7254 52.4041 68.0298 44.6822 87.2488C34.2538 113.205 25.6112 125.609 31.0648 141.635C37.0532 159.232 48.2093 169.817 72.637 187.104C87.9411 197.935 111.664 213.31 141.562 235.806" stroke="var(--color-gray-900)" stroke-width="0.25" stroke-miterlimit="10" />
    <path d="M40.0918 -1.95044C59.1474 18.6731 57.745 37.2693 55.9115 45.5064C53.1205 58.0447 52.9292 67.7961 45.6214 87.7551C36.016 113.979 27.8867 124.655 32.515 140.294C37.924 158.565 49.2668 169.921 73.5216 188.254C88.3555 199.466 111.456 215.28 141.047 237.264" stroke="var(--color-gray-900)" stroke-width="0.25" stroke-miterlimit="10" />
    <path d="M34.5457 -1.87732C56.0172 17.7868 53.5352 36.62 55.3133 44.4317C58.2226 57.2088 53.4314 67.5628 46.5594 88.2626C37.7616 114.757 30.128 123.694 33.9655 138.95C38.7298 157.898 50.3554 170.012 74.4089 189.402C88.7832 200.989 111.25 217.248 140.532 238.72" stroke="var(--color-gray-900)" stroke-width="0.25" stroke-miterlimit="10" />
    <path d="M29.0002 -1.81043C52.8877 16.898 52.6365 35.9556 54.7166 43.3506C58.362 56.3119 53.9136 67.3233 47.498 88.7632C39.4832 115.539 32.3368 122.722 35.4167 137.606C39.4724 157.229 51.4677 170.091 75.2983 190.55C89.2277 202.51 111.047 219.215 140.025 240.176" stroke="var(--color-gray-900)" stroke-width="0.25" stroke-miterlimit="10" />
    <path d="M23.4533 -1.74061C49.7583 16.0115 51.8253 35.2041 54.1191 42.2725C58.4 55.467 54.3735 67.0881 48.4327 89.2673C41.1895 116.324 34.5195 121.738 36.8624 136.262C40.1367 156.555 52.603 170.161 76.18 191.698C89.6775 204.027 110.836 221.183 139.507 241.632" stroke="var(--color-gray-900)" stroke-width="0.25" stroke-miterlimit="10" />
    <path d="M17.9071 -1.67054C46.6281 15.1253 52.2561 34.1382 53.5217 41.1953C56.0091 55.0958 54.8142 66.8568 49.3721 89.7717C42.8812 117.118 36.6799 120.737 38.3144 134.918C40.7319 155.871 53.7753 170.225 77.071 192.847C90.1498 205.547 110.632 223.152 138.999 243.088" stroke="var(--color-gray-900)" stroke-width="0.25" stroke-miterlimit="10" />
    <path d="M12.3623 -1.60059C43.4991 14.239 50.9522 33.2594 52.9247 40.1167C56.9797 54.2151 55.2362 66.6267 50.3121 90.2747C44.5588 117.916 38.8178 119.713 39.7661 133.574C41.243 155.171 54.9657 170.283 77.9572 193.994C90.6309 207.064 110.426 225.118 138.486 244.544" stroke="var(--color-gray-900)" stroke-width="0.25" stroke-miterlimit="10" />
    <path d="M6.8157 -1.53077C40.3693 13.3531 49.6458 32.3206 52.3276 39.0386C58.0048 53.2537 55.6388 66.4009 51.2518 90.7789C46.2232 118.724 40.9379 118.666 41.2176 132.23C41.6787 154.451 56.1875 170.336 78.8455 195.142C91.1219 208.584 110.222 227.085 137.976 246" stroke="var(--color-gray-900)" stroke-width="0.25" stroke-miterlimit="10" />
</svg>