<svg class="abstract-line abstract-line-two" width="141" height="246" viewBox="0 0 141 246" fill="none" xmlns="http://www.w3.org/2000/svg">
    <path d="M148.654 238.718C119.212 192.823 91.5518 179.436 71.4218 175.89C48.9559 171.933 25.8035 178.461 23.3972 171.367C21.856 166.825 29.928 159.949 47.8658 146.756C102.26 106.749 117.723 104.005 119.975 89.6619C123.135 69.569 94.9631 61.0731 91.693 31.2376C89.2923 9.32429 101.835 -10.2789 113.475 -23.903" stroke="var(--color-gray-900)" stroke-width="0.25" stroke-miterlimit="10" />
    <path d="M146.48 240.193C117.714 195.61 90.6438 181.173 71.6668 176.99C50.4596 172.316 28.5218 178.651 26.5323 171.581C25.2528 167.035 33.188 160.286 50.5108 147.543C103.146 108.817 118.772 105.808 120.839 91.5975C123.697 71.4295 93.6663 63.7026 89.3927 33.676C89.2996 33.0213 89.2162 32.3757 89.1496 31.7273C86.9673 10.3132 99.4845 -9.54306 111.011 -23.4117" stroke="var(--color-gray-900)" stroke-width="0.25" stroke-miterlimit="10" />
    <path d="M144.307 241.663C116.22 198.395 89.7829 182.916 71.9139 178.086C51.9963 172.703 31.2432 178.835 29.6695 171.79C28.6521 167.24 36.4512 160.617 53.1586 148.327C104.033 110.889 119.873 107.615 121.703 93.5273C124.331 73.2927 92.3551 66.3222 87.092 36.1085C86.9763 35.4457 86.8609 34.785 86.7786 34.12C84.0922 12.4125 96.7954 -8.41594 108.546 -22.9248" stroke="var(--color-gray-900)" stroke-width="0.25" stroke-miterlimit="10" />
    <path d="M142.133 243.136C114.717 201.177 88.9755 184.678 72.1599 179.184C53.5658 173.109 33.9653 179.017 32.8064 172.002C32.0531 167.444 39.7133 160.955 55.8047 149.112C104.925 112.958 120.944 109.418 122.566 95.4589C124.924 75.1532 91.0304 68.9416 84.7904 38.543C84.6517 37.8683 84.5152 37.194 84.4064 36.5184C80.8788 14.5625 94.105 -7.28323 106.079 -22.4321" stroke="var(--color-gray-900)" stroke-width="0.25" stroke-miterlimit="10" />
    <path d="M139.96 244.608C113.221 203.962 88.2266 186.466 72.4061 180.282C55.1701 173.545 36.6899 179.196 35.9434 172.213C35.4546 167.647 42.9757 161.29 58.4515 149.897C105.813 115.028 122.013 111.22 123.428 97.3904C125.513 77.0082 89.6934 71.5593 82.4859 40.9775C82.3256 40.2908 82.1652 39.6033 82.0313 38.9102C77.8415 16.6842 91.4126 -6.1557 103.613 -21.9472" stroke="var(--color-gray-900)" stroke-width="0.25" stroke-miterlimit="10" />
    <path d="M137.786 246.081C111.725 206.746 87.5421 188.289 72.6532 181.379C56.8093 174.027 39.4172 179.375 39.0799 172.423C38.8583 167.847 46.2379 161.625 61.0986 150.682C106.702 117.096 123.08 113.021 124.291 99.321C126.099 78.8642 88.3453 74.1771 80.1867 43.4107C80.0012 42.7117 79.8142 42.0128 79.6611 41.3037C74.8148 18.8077 88.724 -5.03001 101.15 -21.4595" stroke="var(--color-gray-900)" stroke-width="0.25" stroke-miterlimit="10" />
    <path d="M135.612 247.553C110.226 209.53 86.9217 190.159 72.8992 182.478C58.4723 174.576 42.1466 179.549 42.2167 172.635C42.2629 168.047 49.5024 161.96 63.7447 151.468C107.59 119.167 124.143 114.823 125.153 101.254C126.682 80.7181 86.9869 76.7974 77.885 45.8461C77.6754 45.1324 77.4635 44.4234 77.2892 43.7007C71.791 20.9356 86.0354 -3.89883 98.6848 -20.9683" stroke="var(--color-gray-900)" stroke-width="0.25" stroke-miterlimit="10" />
    <path d="M133.439 249.026C108.728 212.315 84.5802 194.519 73.1462 183.576C58.8739 177.898 44.8807 179.724 45.3537 172.847C45.6705 168.247 52.7628 162.296 66.3957 152.253C108.483 121.236 125.208 116.623 126.02 103.185C127.265 82.5722 85.6232 79.4186 75.5878 48.2812C75.3546 47.5572 75.1179 46.833 74.9208 46.0947C68.7767 23.0581 83.347 -2.77399 96.2233 -20.4817" stroke="var(--color-gray-900)" stroke-width="0.25" stroke-miterlimit="10" />
    <path d="M131.265 250.498C107.23 215.099 83.5829 196.673 73.3923 184.674C60.2906 178.75 47.6176 179.898 48.4907 173.058C49.0793 168.445 56.0233 162.632 69.0392 153.039C109.369 123.31 126.263 118.423 126.88 105.116C127.838 84.4257 84.2426 82.0421 73.2827 50.716C73.0252 49.9803 72.7639 49.2436 72.5448 48.4897C65.7597 25.1811 80.6538 -1.64178 93.7543 -19.9925" stroke="var(--color-gray-900)" stroke-width="0.25" stroke-miterlimit="10" />
    <path d="M129.092 251.971C105.733 217.884 82.5874 198.827 73.6388 185.773C61.7069 179.602 50.3576 180.071 51.6272 173.269C52.4899 168.644 59.2861 162.967 71.6856 153.825C110.259 125.376 127.319 120.223 127.741 107.048C128.409 86.2778 82.8575 84.6685 70.98 53.1505C70.6987 52.4031 70.4135 51.6532 70.1717 50.8844C62.7492 27.3033 77.9626 -0.51268 91.2883 -19.5037" stroke="var(--color-gray-900)" stroke-width="0.25" stroke-miterlimit="10" />
    <path d="M126.919 253.443C104.235 220.667 81.5913 200.981 73.8861 186.87C63.1247 180.454 53.1021 180.245 54.7647 173.481C55.9043 168.843 62.5498 163.302 74.3307 154.61C111.144 127.446 128.37 122.022 128.604 108.98C128.976 88.1308 81.4645 87.2975 68.6775 55.5852C68.3709 54.8255 68.0634 54.0629 67.7983 53.2801C59.7424 29.4237 75.2717 0.616513 88.8219 -19.0146" stroke="var(--color-gray-900)" stroke-width="0.25" stroke-miterlimit="10" />
    <path d="M124.744 254.916C102.738 223.453 80.5945 203.134 74.1351 187.967C64.5442 181.305 55.8505 180.419 57.9047 173.692C59.3235 169.043 65.8145 163.637 76.9827 155.396C112.038 129.516 129.425 123.821 129.471 110.91C129.545 89.9811 80.0727 89.9286 66.3809 58.019C66.0498 57.2469 65.7188 56.4748 65.4335 55.6738C56.7469 31.5419 72.588 1.74468 86.3634 -18.5267" stroke="var(--color-gray-900)" stroke-width="0.25" stroke-miterlimit="10" />
    <path d="M122.57 256.388C101.239 226.237 79.5978 205.291 74.378 189.066C65.9576 182.158 58.5967 180.596 61.0376 173.903C62.7371 169.243 69.0738 163.972 79.6262 156.181C112.923 131.582 130.47 125.62 130.33 112.843C130.101 91.8343 78.6641 92.5659 64.076 60.4536C63.72 59.6706 63.3661 58.8822 63.0552 58.0668C53.7441 33.6569 69.8895 2.87226 83.893 -18.0397" stroke="var(--color-gray-900)" stroke-width="0.25" stroke-miterlimit="10" />
    <path d="M120.397 257.858C99.742 229.022 78.6029 207.445 74.6264 190.163C67.3766 183.01 61.3486 180.775 64.1753 174.114C66.1572 169.444 72.3364 164.307 82.2731 156.965C113.813 133.654 131.518 127.418 131.194 114.774C130.657 93.6853 77.2528 95.2059 61.7753 62.8884C61.3941 62.0931 61.017 61.2914 60.6837 60.4633C50.7466 35.7751 67.2027 4.00279 81.428 -17.5534" stroke="var(--color-gray-900)" stroke-width="0.25" stroke-miterlimit="10" />
    <path d="M118.223 259.333C98.244 231.807 77.6062 209.599 74.8718 191.262C68.7925 183.862 64.1006 180.955 67.3137 174.325C69.5788 169.648 75.5996 164.642 84.9218 157.754C114.703 135.727 132.56 129.221 132.058 116.709C131.21 95.5409 75.8456 97.8517 59.4748 65.3258C59.0691 64.5189 58.6695 63.7038 58.313 62.8617C47.7538 37.8916 64.5144 5.13473 78.9647 -17.058" stroke="var(--color-gray-900)" stroke-width="0.25" stroke-miterlimit="10" />
    <path d="M116.049 260.805C96.746 234.591 76.6097 211.754 75.118 192.36C70.2092 184.714 66.8544 181.138 70.4485 174.536C72.9986 169.853 78.8608 164.978 87.5668 158.536C115.589 137.794 133.598 131.018 132.919 118.637C131.754 97.3907 74.4247 100.496 57.175 67.7571C56.7442 66.9386 56.3221 66.1101 55.9424 65.2495C44.7601 40.0013 61.8219 6.26105 76.4946 -16.5715" stroke="var(--color-gray-900)" stroke-width="0.25" stroke-miterlimit="10" />
    <path d="M113.876 262.278C95.2491 237.375 75.6166 213.908 75.3647 193.458C71.6249 185.57 69.6104 181.323 73.586 174.748C76.4213 170.06 82.1231 165.313 90.2114 159.322C116.476 139.864 134.634 132.818 133.779 120.569C132.292 99.2449 73.0017 103.147 54.8676 70.1922C54.4109 69.3623 53.9671 68.5203 53.5645 67.6486C41.7706 42.112 59.1321 7.38776 74.0324 -16.0831" stroke="var(--color-gray-900)" stroke-width="0.25" stroke-miterlimit="10" />
    <path d="M111.7 263.751C93.7489 240.16 74.6158 216.063 75.6095 194.557C73.0411 186.419 72.3633 181.51 76.7203 174.96C79.8379 170.269 85.3829 165.648 92.8584 160.108C117.364 141.934 135.67 134.619 134.643 122.501C132.832 101.099 71.5812 105.801 52.5709 72.6259C52.0885 71.7852 51.6227 70.929 51.1968 70.0432C38.7838 44.2199 56.4437 8.51859 71.571 -15.595" stroke="var(--color-gray-900)" stroke-width="0.25" stroke-miterlimit="10" />
    <path d="M109.527 265.223C92.2565 242.944 82.5012 217.352 75.8583 195.654C73.3725 187.534 75.122 181.698 79.86 175.171C83.2637 170.477 88.6481 165.982 95.5079 160.892C118.256 144.003 136.705 136.42 135.509 124.432C133.364 102.955 70.1541 108.459 50.2671 75.0607C49.7604 74.2091 49.2719 73.3373 48.8228 72.4382C35.7955 46.3276 53.7525 9.65008 69.1019 -15.1063" stroke="var(--color-gray-900)" stroke-width="0.25" stroke-miterlimit="10" />
    <path d="M107.354 266.695C90.7538 245.727 74.6729 220.618 76.1029 196.752C76.6193 188.142 77.876 181.889 82.9954 175.382C86.6854 170.687 91.9084 166.318 98.1532 161.677C119.144 146.072 137.734 138.223 136.369 126.363C133.889 104.813 68.7239 111.121 47.9641 77.496C47.4315 76.6322 46.9233 75.7467 46.4494 74.833C32.8599 48.4061 51.0614 10.7769 66.636 -14.6197" stroke="var(--color-gray-900)" stroke-width="0.25" stroke-miterlimit="10" />
    <path d="M105.181 268.168C89.2565 248.514 72.6556 222.722 76.3496 197.85C77.6604 189.028 80.6321 182.081 86.1321 175.593C90.1087 170.9 95.1714 166.654 100.8 162.463C120.033 148.142 138.812 140.019 137.233 128.295C134.321 106.684 67.2472 113.818 45.663 79.9308C45.1034 79.0573 44.5748 78.1567 44.0774 77.2288C29.8503 50.5227 48.3704 11.9064 64.1698 -14.1282" stroke="var(--color-gray-900)" stroke-width="0.25" stroke-miterlimit="10" />
    <path d="M103.008 269.641C87.7604 251.298 70.6347 224.681 76.5977 198.948C85.5891 160.155 140.947 149.749 138.096 130.226C134.846 107.971 62.2317 116.886 41.706 79.6233C26.8423 52.6394 45.6805 13.0323 61.7062 -13.6396" stroke="var(--color-gray-900)" stroke-width="0.25" stroke-miterlimit="10" />
</svg>