<svg width="17" height="16" viewBox="0 0 17 16" fill="none" xmlns="http://www.w3.org/2000/svg">
<path d="M8.48177 11.75C8.28294 11.7491 8.09231 11.6706 7.95052 11.5312L2.95052 6.53121C2.80962 6.39031 2.73047 6.19922 2.73047 5.99996C2.73047 5.8007 2.80962 5.6096 2.95052 5.46871C3.09142 5.32781 3.28251 5.24866 3.48177 5.24866C3.68103 5.24866 3.87212 5.32781 4.01302 5.46871L8.48177 9.93746L12.9505 5.46871C13.0914 5.32781 13.2825 5.24866 13.4818 5.24866C13.681 5.24866 13.8721 5.32781 14.013 5.46871C14.1539 5.6096 14.2331 5.8007 14.2331 5.99996C14.2331 6.19922 14.1539 6.39031 14.013 6.53121L9.01302 11.5312C8.87123 11.6706 8.6806 11.7491 8.48177 11.75Z" fill="#484C51"/>
</svg>
