<svg width="18" height="18" viewBox="0 0 25 25" fill="none" xmlns="http://www.w3.org/2000/svg">
    <path d="M10.25 13.6589C10.6795 14.233 11.2274 14.7081 11.8566 15.0518C12.4857 15.3956 13.1815 15.6 13.8967 15.6512C14.6118 15.7025 15.3296 15.5993 16.0013 15.3487C16.6731 15.0981 17.2831 14.706 17.79 14.1989L20.79 11.1989C21.7008 10.2559 22.2048 8.99288 22.1934 7.68189C22.182 6.37091 21.6561 5.11685 20.7291 4.18981C19.8021 3.26277 18.548 2.73692 17.237 2.72553C15.926 2.71414 14.663 3.21811 13.72 4.1289L12 5.8389" stroke="var(--color-white)" stroke-width="1" stroke-linecap="round" stroke-linejoin="round" />
    <path d="M14.2502 11.6589C13.8207 11.0848 13.2728 10.6097 12.6436 10.266C12.0145 9.92222 11.3187 9.7178 10.6035 9.66658C9.88841 9.61537 9.17061 9.71855 8.49885 9.96914C7.8271 10.2197 7.21709 10.6118 6.7102 11.1189L3.7102 14.1189C2.79941 15.0619 2.29544 16.3249 2.30683 17.6359C2.31822 18.9469 2.84407 20.201 3.77111 21.128C4.69815 22.0551 5.95221 22.5809 7.26319 22.5923C8.57418 22.6037 9.83719 22.0997 10.7802 21.1889L12.4902 19.4789" stroke="var(--color-white)" stroke-width="1" stroke-linecap="round" stroke-linejoin="round" />
</svg>